<svg width="225" height="48" viewBox="0 0 225 48" fill="none" xmlns="http://www.w3.org/2000/svg">
<path d="M138.298 8.43692C137.632 7.99298 137.132 7.83538 136.318 7.82385H134.587C134.362 7.83154 134.212 7.87382 134.026 8.01219C133.872 8.13519 133.806 8.24282 133.731 8.42347L125.658 30.2095C125.572 30.4786 125.566 30.7572 125.755 31.0186C125.937 31.278 126.214 31.3953 126.499 31.3953H130.023L136.291 13.3223L142.572 30.7822C142.639 30.9609 142.704 31.0724 142.86 31.1973C143.043 31.3415 143.233 31.3953 143.424 31.3953H147.721L139.484 9.7726C139.177 9.15569 138.882 8.82706 138.298 8.43692Z" fill="white"/>
<path d="M123.494 23.5907L120.507 22.624C120.13 24.2902 119.507 25.5183 118.642 26.2966C117.776 27.073 116.739 27.4613 115.533 27.4613C113.906 27.4613 112.579 26.8501 111.563 25.6221C110.544 24.4036 110.03 22.3492 110.03 19.4664C110.03 16.7508 110.548 14.7886 111.575 13.5759C112.617 12.3652 113.966 11.7559 115.629 11.7559C116.828 11.7559 117.851 12.098 118.69 12.7822C119.247 13.2358 119.684 13.7989 119.988 14.4773C120.155 14.7752 120.35 14.9885 120.704 15.1499C121.069 15.319 121.346 15.3094 121.74 15.2441L124.837 14.4927C124.324 12.6707 123.56 11.2697 122.539 10.2915C120.827 8.65025 118.599 7.82385 115.854 7.82385C112.715 7.82385 110.184 8.87702 108.261 10.9814C106.331 13.0724 105.37 16.0167 105.37 19.8085C105.37 23.3966 106.328 26.2236 108.245 28.2953C110.161 30.3613 112.61 31.3953 115.581 31.3953C117.99 31.3953 119.971 30.7918 121.529 29.5907C122.789 28.6124 123.766 27.2306 124.445 25.4337C124.57 25.0474 124.56 24.6342 124.31 24.2268C124.1 23.8847 123.846 23.7194 123.496 23.5907H123.494Z" fill="white"/>
<path d="M102.113 30.5266V8.69253C102.113 8.21399 101.692 7.82385 101.173 7.82385H98.5105C97.9931 7.82385 97.5699 8.21399 97.5699 8.69253V30.5266C97.5699 31.0051 97.9931 31.3972 98.5105 31.3972H101.173C101.692 31.3972 102.113 31.0051 102.113 30.5266Z" fill="white"/>
<path d="M95.1445 30.5266V28.3223C95.1445 27.8437 94.7213 27.4517 94.2059 27.4517H83.8576V8.69253C83.8576 8.21399 83.4363 7.82385 82.917 7.82385H80.3722C79.8548 7.82385 79.4336 8.21399 79.4336 8.69253V30.5266C79.4336 31.0051 79.8548 31.3972 80.3722 31.3972H94.2059C94.7213 31.3972 95.1445 31.0051 95.1445 30.5266Z" fill="white"/>
<path d="M69.2027 8.54454L65.3442 23.5772L61.4896 8.54454C61.3838 8.07561 60.9029 7.82385 60.3739 7.82385H55.4518C54.9324 7.82385 54.5093 8.21399 54.5093 8.69445V30.5266C54.5093 31.0051 54.9324 31.3972 55.4518 31.3972H58.714V13.0878L63.0014 30.7073C63.1091 31.1743 63.5996 31.3761 64.117 31.3761H66.5771C67.1138 31.3761 67.585 31.1743 67.6908 30.7073L71.9802 13.0878V30.5266C71.9782 31.0051 72.3995 31.3972 72.9207 31.3972H75.2424C75.7656 31.3972 76.183 31.0051 76.183 30.5266V7.82385H70.3183C69.7932 7.82385 69.3123 8.07561 69.2046 8.54454H69.2027Z" fill="white"/>
<path d="M43.128 8.42151C43.0511 8.24086 42.9915 8.13324 42.8318 8.01024C42.651 7.87379 42.4971 7.82959 42.2721 7.8219H40.5371C39.7293 7.83343 39.2311 7.99102 38.5656 8.43497C37.9789 8.82702 37.6865 9.15374 37.3769 9.77065L29.1444 31.3933H33.4338C33.628 31.3933 33.8165 31.3395 33.9992 31.1954C34.155 31.0705 34.2204 30.9571 34.2878 30.7803L40.5679 13.3203L46.8384 31.3933H50.3622C50.6411 31.3933 50.9219 31.2761 51.1085 31.0166C51.297 30.7553 51.2874 30.4766 51.2028 30.2075L43.13 8.42151H43.128Z" fill="white"/>
<path d="M23.4124 24.0039C23.0604 24.1672 22.8642 24.3844 22.7008 24.6765C22.3949 25.3511 21.9602 25.9123 21.3966 26.3658C20.5599 27.0461 19.5405 27.3902 18.3364 27.3902C16.6745 27.3902 15.3242 26.7848 14.2856 25.5759C13.2546 24.369 12.7391 22.4126 12.7391 19.7047C12.7391 16.8354 13.2488 14.7925 14.2683 13.5682C15.2896 12.3556 16.613 11.7444 18.2441 11.7444C19.4462 11.7444 20.4791 12.1307 21.3505 12.9052C22.216 13.6836 22.8373 14.8982 23.2162 16.5606L26.2053 15.5958C26.5535 15.469 26.8074 15.3056 27.017 14.9654C27.2728 14.5561 27.2786 14.1506 27.1594 13.7624C26.4746 11.9712 25.5013 10.5913 24.2395 9.61886C22.6834 8.42155 20.6965 7.82385 18.2902 7.82385C15.3089 7.82385 12.868 8.85012 10.9483 10.9046C9.03449 12.9725 8.07275 15.788 8.07275 19.3645C8.07275 23.1429 9.03834 26.0795 10.9637 28.1627C12.893 30.2614 15.4243 31.3088 18.5653 31.3088C21.3101 31.3088 23.5355 30.4862 25.2494 28.8431C26.2669 27.8725 27.0343 26.4773 27.5421 24.6631L24.4473 23.9116C24.0549 23.8482 23.776 23.8367 23.4105 24.0039H23.4124Z" fill="white"/>
<path d="M22.9527 30.7322C22.0718 31.132 21.6082 31.2088 20.4965 31.3741L26.6997 31.3953L24.4569 29.8232C23.8683 30.2614 23.5721 30.4459 22.9508 30.7322H22.9527Z" fill="white"/>
<path d="M145.322 7.82385C143.997 7.82385 142.924 8.89816 142.924 10.2204C142.924 11.5426 143.997 12.6169 145.322 12.6169C146.647 12.6169 147.721 11.5445 147.721 10.2204C147.721 8.89624 146.646 7.82385 145.322 7.82385ZM145.322 12.3767C144.13 12.3767 143.164 11.4139 143.164 10.2204C143.164 9.02693 144.128 8.06408 145.322 8.06408C146.517 8.06408 147.48 9.02885 147.48 10.2204C147.48 11.4119 146.515 12.3767 145.322 12.3767Z" fill="white"/>
<path d="M144.801 10.4914H145.178L145.701 11.558H146.309L145.707 10.403C145.851 10.3491 145.966 10.2684 146.051 10.1608C146.149 10.0263 146.197 9.87253 146.197 9.70149C146.197 9.4651 146.12 9.27291 145.966 9.11917C145.803 8.95965 145.589 8.87701 145.326 8.87701H144.276V11.5599H144.801V10.4933V10.4914ZM144.801 9.34787H145.293C145.407 9.34787 145.499 9.37862 145.568 9.44396C145.639 9.51122 145.674 9.59578 145.674 9.69956C145.674 9.80334 145.639 9.88983 145.57 9.95517C145.503 10.0205 145.409 10.0513 145.293 10.0513H144.801V9.34979V9.34787Z" fill="white"/>
<path d="M48.131 42.5881H47.7425C47.704 42.5881 47.6675 42.5727 47.6367 42.5439C47.604 42.5151 47.5886 42.4786 47.5886 42.4324V35.977C47.5886 35.9327 47.604 35.8905 47.6367 35.8559C47.6694 35.8213 47.704 35.8021 47.7425 35.8021H48.5196C48.5831 35.8021 48.635 35.8347 48.6754 35.8982L50.8201 41.5887L52.984 35.9097C53.0167 35.8386 53.0609 35.804 53.1205 35.804H53.8765C53.9149 35.804 53.9534 35.8213 53.988 35.8578C54.0226 35.8943 54.0419 35.9347 54.0419 35.9789V42.4344C54.0419 42.4805 54.0265 42.517 53.9938 42.5458C53.9611 42.5746 53.9226 42.59 53.8765 42.59H53.4783C53.4321 42.59 53.3956 42.5746 53.3667 42.5458C53.3379 42.517 53.3225 42.4805 53.3225 42.4344V36.8418L51.1586 42.4824C51.1259 42.5535 51.074 42.5881 51.0028 42.5881H50.6239C50.5527 42.5881 50.5008 42.5535 50.4681 42.4824L48.2945 36.8418V42.4344C48.2945 42.4805 48.2791 42.517 48.2464 42.5458C48.2138 42.5746 48.1753 42.59 48.1291 42.59L48.131 42.5881Z" fill="white"/>
<path d="M59.8296 40.7854L59.2275 42.492C59.2025 42.5574 59.1525 42.5881 59.0813 42.5881H58.5966C58.5716 42.5881 58.5466 42.5785 58.5235 42.5593C58.5004 42.5401 58.4889 42.5151 58.4889 42.4824L58.5466 42.2883L60.8451 35.9597C60.8836 35.8559 60.9452 35.804 61.0298 35.804H61.5838C61.6607 35.804 61.7203 35.8521 61.7588 35.9501L64.1074 42.3479C64.1324 42.3998 64.1458 42.444 64.1458 42.4843C64.1458 42.4978 64.1401 42.5189 64.1266 42.5478C64.1131 42.5766 64.0843 42.592 64.04 42.592H63.5457C63.4611 42.592 63.4091 42.5593 63.3899 42.4959L62.7686 40.7893H59.8296V40.7854ZM62.5263 40.107L61.2933 36.6573L60.0719 40.107H62.5263Z" fill="white"/>
<path d="M69.3469 39.8457V42.4344C69.3469 42.4805 69.3296 42.517 69.2931 42.5458C69.2565 42.5747 69.2161 42.59 69.1719 42.59H68.7641C68.7256 42.59 68.6891 42.5747 68.6583 42.5458C68.6256 42.517 68.6102 42.4805 68.6102 42.4344V35.9789C68.6102 35.9347 68.6256 35.8924 68.6583 35.8578C68.691 35.8232 68.7256 35.804 68.7641 35.804H71.0819C71.7224 35.804 72.2321 35.9712 72.6091 36.3075C72.988 36.6439 73.1765 37.1243 73.1765 37.7508V37.8969C73.1765 38.1679 73.1246 38.4331 73.0207 38.6925C72.9169 38.9501 72.7515 39.1692 72.5206 39.346C72.2898 39.5228 72.0244 39.6515 71.7205 39.7284L73.1169 42.346C73.1496 42.4113 73.165 42.4555 73.165 42.4824C73.165 42.4959 73.1592 42.517 73.1458 42.5458C73.1323 42.5747 73.0996 42.59 73.0496 42.59H72.5168C72.4399 42.59 72.3783 42.5478 72.3321 42.4632L70.9742 39.8457H69.345H69.3469ZM69.3469 36.5016V39.1576H71.055C71.23 39.1576 71.4262 39.123 71.6474 39.0558C71.8667 38.9885 72.0552 38.8559 72.209 38.658C72.3648 38.46 72.4418 38.214 72.4418 37.9161V37.7605C72.4418 37.476 72.386 37.2396 72.2725 37.0532C72.159 36.8668 71.9975 36.7265 71.7878 36.6362C71.5781 36.5458 71.3339 36.4997 71.055 36.4997H69.3469V36.5016Z" fill="white"/>
<path d="M78.6488 42.4344C78.6488 42.4805 78.6315 42.517 78.5949 42.5458C78.5584 42.5747 78.518 42.59 78.4738 42.59H78.066C78.0275 42.59 77.991 42.5747 77.9602 42.5458C77.9275 42.517 77.9121 42.4805 77.9121 42.4344V35.9789C77.9121 35.9347 77.9275 35.8924 77.9602 35.8578C77.9929 35.8232 78.0275 35.804 78.066 35.804H78.4738C78.5199 35.804 78.5603 35.8213 78.5949 35.8578C78.6296 35.8924 78.6488 35.9347 78.6488 35.9789V39.469L81.8302 35.9789C81.9476 35.8636 82.0341 35.804 82.0918 35.804H82.6246C82.6381 35.804 82.6592 35.8098 82.6881 35.8232C82.7169 35.8367 82.7323 35.8694 82.7323 35.9193C82.7323 35.9654 82.6939 36.0327 82.615 36.123L80.3068 38.6234L82.6554 42.3171C82.7073 42.4075 82.7323 42.4632 82.7323 42.4824C82.7323 42.4959 82.7266 42.517 82.7131 42.5458C82.6996 42.5747 82.6708 42.59 82.6265 42.59H82.0649C81.9802 42.59 81.9168 42.5478 81.8706 42.4632L79.7952 39.1672L78.6507 40.4184V42.4344H78.6488Z" fill="white"/>
<path d="M87.9334 40.7854L87.3314 42.492C87.3064 42.5574 87.2564 42.5881 87.1852 42.5881H86.7005C86.6755 42.5881 86.6505 42.5785 86.6274 42.5593C86.6043 42.5401 86.5928 42.5151 86.5928 42.4824L86.6505 42.2883L88.949 35.9597C88.9875 35.8559 89.049 35.804 89.1337 35.804H89.6876C89.7646 35.804 89.8242 35.8521 89.8627 35.9501L92.2112 42.3479C92.2362 42.3998 92.2497 42.444 92.2497 42.4843C92.2497 42.4978 92.2439 42.5189 92.2305 42.5478C92.217 42.5766 92.1881 42.592 92.1439 42.592H91.6496C91.5649 42.592 91.513 42.5593 91.4938 42.4959L90.8725 40.7893H87.9334V40.7854ZM90.6301 40.107L89.3972 36.6573L88.1758 40.107H90.6301Z" fill="white"/>
<path d="M97.4296 42.4344C97.4296 42.4805 97.4143 42.517 97.3816 42.5458C97.3489 42.5747 97.3104 42.5901 97.2661 42.5901H96.868C96.8295 42.5901 96.793 42.5747 96.7622 42.5458C96.7295 42.517 96.7141 42.4805 96.7141 42.4344V35.9789C96.7141 35.9347 96.7295 35.8924 96.7622 35.8578C96.7949 35.8232 96.8295 35.804 96.868 35.804H97.3527C97.4239 35.804 97.4893 35.8501 97.547 35.9405L100.875 41.2044V35.9808C100.875 35.9366 100.89 35.8943 100.919 35.8597C100.948 35.8252 100.984 35.8059 101.03 35.8059H101.429C101.475 35.8059 101.513 35.8232 101.546 35.8597C101.579 35.8943 101.594 35.9366 101.594 35.9808V42.4363C101.594 42.4824 101.579 42.5189 101.546 42.5478C101.513 42.5766 101.475 42.592 101.429 42.592H101.1C100.996 42.592 100.909 42.5305 100.838 42.4075L97.4335 37.0378V42.4363L97.4296 42.4344Z" fill="white"/>
<path d="M107.209 42.5881H106.801C106.762 42.5881 106.726 42.5727 106.695 42.5439C106.662 42.5151 106.647 42.4786 106.647 42.4324V35.977C106.647 35.9327 106.662 35.8905 106.695 35.8559C106.728 35.8213 106.762 35.8021 106.801 35.8021H107.209C107.255 35.8021 107.295 35.8194 107.33 35.8559C107.364 35.8905 107.384 35.9327 107.384 35.977V42.4324C107.384 42.4786 107.366 42.5151 107.33 42.5439C107.293 42.5727 107.253 42.5881 107.209 42.5881Z" fill="white"/>
<path d="M116.453 42.5881H112.185C112.138 42.5881 112.1 42.5727 112.067 42.5439C112.035 42.5151 112.019 42.4786 112.019 42.4324V42.1614C112.019 42.0711 112.058 41.9616 112.135 41.8328L115.705 36.492H112.183C112.136 36.492 112.098 36.4766 112.065 36.4478C112.033 36.419 112.017 36.3825 112.017 36.3363V35.977C112.017 35.9327 112.033 35.8905 112.065 35.8559C112.098 35.8213 112.136 35.8021 112.183 35.8021H116.451C116.497 35.8021 116.537 35.8194 116.572 35.8559C116.607 35.8905 116.626 35.9327 116.626 35.977V36.2383C116.626 36.3344 116.578 36.4555 116.48 36.5977L112.948 41.9097H116.451C116.497 41.9097 116.537 41.9251 116.572 41.9577C116.607 41.9904 116.626 42.0288 116.626 42.075V42.4344C116.626 42.4805 116.609 42.517 116.572 42.5458C116.535 42.5746 116.495 42.59 116.451 42.59L116.453 42.5881Z" fill="white"/>
<path d="M121.915 40.7854L121.313 42.492C121.288 42.5574 121.238 42.5881 121.167 42.5881H120.682C120.657 42.5881 120.632 42.5785 120.609 42.5593C120.586 42.5401 120.575 42.5151 120.575 42.4824L120.632 42.2883L122.931 35.9597C122.969 35.8559 123.031 35.804 123.116 35.804H123.67C123.747 35.804 123.806 35.8521 123.845 35.9501L126.193 42.3479C126.218 42.3998 126.232 42.444 126.232 42.4843C126.232 42.4978 126.226 42.5189 126.212 42.5478C126.199 42.5766 126.17 42.592 126.126 42.592H125.632C125.547 42.592 125.495 42.5593 125.476 42.4959L124.854 40.7893H121.915V40.7854ZM124.612 40.107L123.379 36.6573L122.158 40.107H124.612Z" fill="white"/>
<path d="M138.609 42.5881H136.474C136.436 42.5881 136.399 42.5727 136.368 42.5439C136.336 42.5151 136.32 42.4786 136.32 42.4324V35.977C136.32 35.9327 136.336 35.8905 136.368 35.8559C136.401 35.8213 136.436 35.8021 136.474 35.8021H138.598C138.94 35.8021 139.265 35.8636 139.573 35.9866C139.881 36.1096 140.148 36.2864 140.379 36.5189C140.608 36.7515 140.787 37.032 140.912 37.3626C141.039 37.6912 141.1 38.0506 141.1 38.4388V39.9513C141.1 40.3395 141.037 40.697 140.912 41.0276C140.785 41.3562 140.61 41.6387 140.383 41.8712C140.156 42.1038 139.89 42.2825 139.583 42.4036C139.275 42.5247 138.95 42.5881 138.607 42.5881H138.609ZM138.6 36.5016H137.057V41.9001H138.609C138.784 41.9001 138.969 41.8713 139.163 41.8136C139.357 41.7559 139.554 41.6425 139.75 41.4753C139.948 41.3081 140.098 41.0852 140.202 40.8104C140.306 40.5356 140.358 40.2492 140.358 39.9532V38.46C140.358 38.2409 140.327 38.016 140.265 37.7873C140.204 37.5586 140.1 37.3472 139.956 37.157C139.809 36.9667 139.623 36.8091 139.392 36.6861C139.163 36.5631 138.9 36.5016 138.602 36.5016H138.6Z" fill="white"/>
<path d="M150.115 35.9789V36.3383C150.115 36.3844 150.098 36.4229 150.061 36.4555C150.027 36.4882 149.985 36.5036 149.94 36.5036H146.661V38.8194H149.29C149.336 38.8194 149.375 38.8348 149.408 38.8674C149.44 38.9001 149.456 38.9385 149.456 38.9847V39.3441C149.456 39.3902 149.44 39.4286 149.408 39.4613C149.375 39.494 149.336 39.5093 149.29 39.5093H146.661V41.9039H149.94C149.985 41.9039 150.027 41.9212 150.061 41.9578C150.096 41.9943 150.115 42.0308 150.115 42.0692V42.4382C150.115 42.4843 150.098 42.5209 150.061 42.5497C150.025 42.5785 149.985 42.5939 149.94 42.5939H146.08C146.041 42.5939 146.005 42.5785 145.974 42.5497C145.941 42.5209 145.926 42.4843 145.926 42.4382V35.9827C145.926 35.9385 145.941 35.8963 145.974 35.8617C146.007 35.8271 146.041 35.8079 146.08 35.8079H149.94C149.985 35.8079 150.027 35.8252 150.061 35.8617C150.096 35.8982 150.115 35.9385 150.115 35.9827V35.9789Z" fill="white"/>
<path d="M158.613 39.8168H156.955C156.909 39.8168 156.871 39.8014 156.84 39.7726C156.807 39.7438 156.792 39.7073 156.792 39.6612V39.3114C156.792 39.2672 156.807 39.2268 156.84 39.1941C156.873 39.1615 156.911 39.1461 156.955 39.1461H159.167C159.213 39.1461 159.252 39.1615 159.285 39.1941C159.317 39.2268 159.333 39.2653 159.333 39.3114V42.4325C159.333 42.4786 159.317 42.5151 159.285 42.5439C159.252 42.5727 159.213 42.5881 159.167 42.5881H158.817C158.771 42.5881 158.734 42.5727 158.706 42.5439C158.677 42.5151 158.661 42.4786 158.661 42.4325V41.754C158.584 41.8905 158.465 42.0308 158.307 42.1749C158.15 42.321 157.94 42.4421 157.682 42.5382C157.423 42.6342 157.155 42.6842 156.876 42.6842C156.501 42.6842 156.157 42.615 155.843 42.4767C155.53 42.3383 155.266 42.148 155.053 41.9039C154.839 41.6599 154.676 41.3812 154.562 41.0603C154.449 40.7412 154.393 40.403 154.393 40.0474V38.3601C154.393 37.9719 154.457 37.6125 154.582 37.28C154.709 36.9475 154.884 36.665 155.111 36.4325C155.338 36.1999 155.603 36.0212 155.911 35.8943C156.219 35.7675 156.546 35.706 156.896 35.706C157.246 35.706 157.54 35.7598 157.823 35.8655C158.104 35.9731 158.346 36.1211 158.55 36.3114C158.754 36.5016 158.919 36.7227 159.05 36.9706C159.179 37.2185 159.269 37.4837 159.321 37.7604L159.331 37.9161C159.331 37.9872 159.298 38.0218 159.235 38.0218H158.711C158.646 38.0218 158.606 37.9699 158.584 37.8661C158.565 37.6989 158.498 37.4991 158.386 37.2704C158.273 37.0417 158.086 36.8399 157.829 36.665C157.569 36.4901 157.259 36.4036 156.898 36.4036C156.657 36.4036 156.432 36.4498 156.219 36.5401C156.005 36.6304 155.817 36.7592 155.655 36.9283C155.493 37.0955 155.366 37.305 155.276 37.5529C155.186 37.8008 155.139 38.0737 155.139 38.3716V40.0474C155.139 40.2665 155.17 40.4914 155.232 40.7201C155.293 40.9488 155.397 41.1583 155.542 41.3447C155.688 41.533 155.874 41.6868 156.105 41.8098C156.334 41.9328 156.601 41.9943 156.905 41.9943C157.255 41.9943 157.553 41.9155 157.803 41.756C158.052 41.5984 158.25 41.387 158.396 41.1256C158.542 40.8642 158.613 40.5952 158.613 40.3165V39.813V39.8168Z" fill="white"/>
<path d="M168.498 35.9789V36.3383C168.498 36.3844 168.481 36.4229 168.444 36.4555C168.41 36.4882 168.367 36.5036 168.323 36.5036H165.043V38.8194H167.673C167.719 38.8194 167.758 38.8348 167.79 38.8674C167.823 38.9001 167.838 38.9385 167.838 38.9847V39.3441C167.838 39.3902 167.823 39.4286 167.79 39.4613C167.758 39.494 167.719 39.5093 167.673 39.5093H165.043V41.9039H168.323C168.367 41.9039 168.41 41.9212 168.444 41.9578C168.479 41.9943 168.498 42.0308 168.498 42.0692V42.4382C168.498 42.4843 168.481 42.5209 168.444 42.5497C168.408 42.5785 168.367 42.5939 168.323 42.5939H164.463C164.424 42.5939 164.388 42.5785 164.357 42.5497C164.324 42.5209 164.309 42.4843 164.309 42.4382V35.9827C164.309 35.9385 164.324 35.8963 164.357 35.8617C164.39 35.8271 164.424 35.8079 164.463 35.8079H168.323C168.367 35.8079 168.41 35.8252 168.444 35.8617C168.479 35.8982 168.498 35.9385 168.498 35.9827V35.9789Z" fill="white"/>
<path d="M173.891 39.8457V42.4344C173.891 42.4805 173.874 42.517 173.838 42.5458C173.801 42.5747 173.761 42.59 173.716 42.59H173.309C173.27 42.59 173.234 42.5747 173.203 42.5458C173.17 42.517 173.155 42.4805 173.155 42.4344V35.9789C173.155 35.9347 173.17 35.8924 173.203 35.8578C173.236 35.8232 173.27 35.804 173.309 35.804H175.626C176.267 35.804 176.777 35.9712 177.154 36.3075C177.533 36.6439 177.721 37.1243 177.721 37.7508V37.8969C177.721 38.1679 177.669 38.4331 177.565 38.6925C177.461 38.9501 177.296 39.1692 177.065 39.346C176.834 39.5228 176.569 39.6515 176.265 39.7284L177.661 42.346C177.694 42.4113 177.71 42.4555 177.71 42.4824C177.71 42.4959 177.704 42.517 177.69 42.5458C177.677 42.5747 177.644 42.59 177.594 42.59H177.061C176.984 42.59 176.923 42.5478 176.877 42.4632L175.519 39.8457H173.89H173.891ZM173.891 36.5016V39.1576H175.6C175.775 39.1576 175.971 39.123 176.192 39.0558C176.411 38.9885 176.6 38.8559 176.754 38.658C176.909 38.46 176.986 38.214 176.986 37.9161V37.7605C176.986 37.476 176.931 37.2396 176.817 37.0532C176.704 36.8668 176.542 36.7265 176.332 36.6362C176.123 36.5458 175.878 36.4997 175.6 36.4997H173.891V36.5016Z" fill="white"/>
<path d="M158.811 34.7681V35.0083C158.811 35.0372 158.786 35.0641 158.734 35.0852C158.682 35.1064 158.625 35.1179 158.559 35.1179H155.089C155.034 35.1179 154.982 35.1083 154.936 35.0852C154.889 35.0641 154.866 35.0391 154.866 35.0083V34.7681C154.866 34.7393 154.889 34.7124 154.936 34.6912C154.982 34.6701 155.034 34.6586 155.089 34.6586H158.559C158.625 34.6586 158.682 34.6682 158.734 34.6912C158.786 34.7124 158.811 34.7374 158.811 34.7681Z" fill="white"/>
<path d="M193.742 13.3607C191.339 13.3607 190.137 15.025 190.137 18.3537V22.4741C190.137 24.1115 190.42 25.3492 190.983 26.1852C191.547 27.0212 192.459 27.4402 193.715 27.4402C196.117 27.4402 197.319 25.7854 197.319 22.4741V18.3537C197.319 15.025 196.127 13.3607 193.742 13.3607Z" fill="white"/>
<path d="M178.421 20.264C177.438 20.264 176.619 20.583 175.963 21.2191C175.307 21.8553 174.98 22.6932 174.98 23.7291V23.8386C174.98 25.0205 175.297 25.9315 175.936 26.5676C176.573 27.2038 177.402 27.5228 178.421 27.5228C179.441 27.5228 180.27 27.2057 180.906 26.5676C181.543 25.9315 181.862 25.0225 181.862 23.8386V23.7291C181.862 22.674 181.539 21.8322 180.893 21.2057C180.247 20.5772 179.423 20.264 178.421 20.264Z" fill="white"/>
<path d="M206.085 12.296C205.592 12.296 205.175 12.4728 204.829 12.8283C204.482 13.1839 204.309 13.624 204.309 14.1525C204.309 14.681 204.482 15.148 204.829 15.5035C205.175 15.8591 205.594 16.0359 206.085 16.0359C206.575 16.0359 206.994 15.8591 207.341 15.5035C207.687 15.148 207.86 14.6983 207.86 14.1525C207.86 13.6067 207.687 13.1839 207.341 12.8283C206.994 12.4728 206.577 12.296 206.085 12.296Z" fill="white"/>
<path d="M152.543 7.82385V32.1352H211.143V7.82385H152.543ZM168.946 26.485C168.727 27.0673 168.39 27.6362 167.936 28.1896C167.481 28.7451 166.83 29.1986 165.984 29.5542C165.138 29.9097 164.149 30.0865 163.022 30.0865C161.966 30.0865 161.033 29.9232 160.223 29.5945C159.413 29.2678 158.785 28.845 158.338 28.3261C157.892 27.8072 157.555 27.271 157.328 26.7156C157.101 26.1602 156.978 25.6105 156.959 25.0647C156.942 24.8841 156.996 24.7284 157.123 24.6016C157.25 24.4747 157.405 24.4113 157.586 24.4113H159.061C159.388 24.4113 159.608 24.6208 159.717 25.0397C159.881 25.9123 160.273 26.5407 160.893 26.9231C161.512 27.3056 162.222 27.4959 163.022 27.4959C164.114 27.4959 164.947 27.2133 165.521 26.6502C166.094 26.0871 166.38 25.3492 166.38 24.4401C166.38 22.4568 165.334 21.4651 163.239 21.4651H162.093C161.91 21.4651 161.76 21.4017 161.643 21.2748C161.524 21.148 161.466 20.9923 161.466 20.8117V19.5298C161.466 19.3472 161.525 19.1973 161.643 19.0801C161.76 18.9629 161.912 18.9033 162.093 18.9033H163.239C164.076 18.9033 164.778 18.6573 165.342 18.1672C165.905 17.6752 166.188 17.0026 166.188 16.1474C166.188 15.148 165.882 14.4235 165.272 13.9776C164.663 13.5317 163.911 13.3088 163.02 13.3088C162.218 13.3088 161.514 13.5087 160.904 13.9084C160.294 14.3082 159.935 14.927 159.825 15.763C159.752 16.182 159.533 16.3914 159.169 16.3914H157.694C157.511 16.3914 157.357 16.328 157.23 16.2012C157.103 16.0743 157.048 15.9283 157.067 15.7649C157.103 15.1826 157.24 14.6195 157.477 14.0737C157.713 13.5279 158.059 12.9917 158.513 12.4632C158.969 11.9366 159.596 11.5138 160.398 11.1948C161.198 10.8777 162.128 10.7182 163.183 10.7182C165.132 10.7182 166.592 11.2371 167.567 12.2729C168.54 13.3107 169.029 14.5196 169.029 15.9014C169.029 17.7752 168.263 19.1666 166.734 20.0756C168.427 20.9674 169.273 22.5221 169.273 24.7419C169.273 25.3242 169.164 25.9065 168.946 26.4888V26.485ZM184.647 23.8386C184.647 25.6394 184.065 27.1307 182.899 28.3126C181.733 29.4946 180.241 30.0865 178.421 30.0865C176.602 30.0865 175.021 29.51 173.901 28.353C172.782 27.198 172.222 25.674 172.222 23.7829V18.1346C172.222 15.8072 172.755 13.9872 173.82 12.6765C174.886 11.3658 176.446 10.7124 178.504 10.7124C180.252 10.7124 181.653 11.1986 182.711 12.173C183.767 13.1454 184.294 14.2332 184.294 15.4344C184.294 15.7611 184.13 15.9264 183.801 15.9264H182.109C181.853 15.9264 181.708 15.836 181.672 15.6534C181.526 14.8886 181.166 14.3082 180.593 13.9065C180.02 13.5067 179.296 13.3069 178.421 13.3069C176.127 13.3069 174.98 14.854 174.98 17.9462V19.2012C175.271 18.8187 175.75 18.4747 176.413 18.1634C177.077 17.854 177.802 17.7002 178.585 17.7002C180.46 17.7002 181.939 18.2652 183.022 19.3914C184.105 20.5196 184.647 21.9648 184.647 23.729V23.8386ZM200.078 22.3914C200.078 24.7918 199.545 26.6752 198.479 28.0397C197.414 29.4043 195.825 30.0865 193.713 30.0865C191.601 30.0865 190.016 29.4043 188.962 28.0397C187.906 26.6752 187.379 24.7918 187.379 22.3914V18.3805C187.379 15.9802 187.912 14.1006 188.977 12.7457C190.043 11.3908 191.63 10.7124 193.744 10.7124C195.857 10.7124 197.417 11.3908 198.481 12.7457C199.547 14.1006 200.08 15.9782 200.08 18.3805V22.3914H200.078ZM208.57 16.6221C207.877 17.287 207.05 17.6176 206.085 17.6176C205.119 17.6176 204.269 17.2851 203.586 16.6221C202.903 15.959 202.563 15.1346 202.563 14.1525C202.563 13.1704 202.903 12.3517 203.586 11.6964C204.269 11.041 205.102 10.7143 206.085 10.7143C207.067 10.7143 207.877 11.0468 208.57 11.7098C209.262 12.3748 209.606 13.1877 209.606 14.1525C209.606 15.1173 209.26 15.959 208.57 16.6221Z" fill="white"/>
</svg>
