<svg width="178" height="38" viewBox="0 0 178 38" fill="none" xmlns="http://www.w3.org/2000/svg">
<path d="M109.409 6.67922C108.882 6.32777 108.487 6.20301 107.843 6.19388H106.473C106.295 6.19996 106.177 6.23344 106.029 6.34298C105.907 6.44035 105.856 6.52556 105.796 6.66857L99.4098 23.9159C99.3414 24.1289 99.3368 24.3495 99.4859 24.5564C99.6305 24.7618 99.8496 24.8546 100.075 24.8546H102.863L107.822 10.5468L112.79 24.3692C112.843 24.5107 112.895 24.599 113.018 24.6979C113.163 24.812 113.313 24.8546 113.464 24.8546H116.863L110.348 7.73664C110.104 7.24825 109.871 6.98808 109.409 6.67922Z" fill="#8D9AA6"/>
<path d="M97.6979 18.6759L95.3348 17.9106C95.0365 19.2298 94.5435 20.202 93.8587 20.8182C93.174 21.4328 92.3538 21.7402 91.3997 21.7402C90.1123 21.7402 89.0624 21.2563 88.2589 20.2841C87.4525 19.3195 87.0462 17.6931 87.0462 15.4109C87.0462 13.2611 87.4555 11.7077 88.2681 10.7476C89.0928 9.78909 90.1595 9.30679 91.4758 9.30679C92.4238 9.30679 93.2333 9.57761 93.8968 10.1192C94.338 10.4783 94.6835 10.9241 94.9239 11.4612C95.0563 11.697 95.21 11.8659 95.49 11.9937C95.7791 12.1276 95.9982 12.12 96.3101 12.0682L98.7601 11.4733C98.3538 10.031 97.7497 8.92186 96.9416 8.14743C95.5873 6.84811 93.8252 6.19388 91.6538 6.19388C89.1704 6.19388 87.1679 7.02764 85.6462 8.69364C84.12 10.349 83.3591 12.6799 83.3591 15.6817C83.3591 18.5223 84.1169 20.7603 85.634 22.4005C87.1496 24.036 89.0867 24.8546 91.4377 24.8546C93.3429 24.8546 94.9102 24.3769 96.1428 23.4259C97.1395 22.6515 97.9125 21.5576 98.4496 20.135C98.5485 19.8292 98.5409 19.5021 98.3431 19.1795C98.1773 18.9087 97.9764 18.7779 97.6994 18.6759H97.6979Z" fill="#8D9AA6"/>
<path d="M80.7829 24.1669V6.88158C80.7829 6.50273 80.4497 6.19388 80.0388 6.19388H77.9328C77.5235 6.19388 77.1887 6.50273 77.1887 6.88158V24.1669C77.1887 24.5457 77.5235 24.8561 77.9328 24.8561H80.0388C80.4497 24.8561 80.7829 24.5457 80.7829 24.1669Z" fill="#8D9AA6"/>
<path d="M75.2699 24.1669V22.4218C75.2699 22.0429 74.9351 21.7326 74.5273 21.7326H66.3407V6.88158C66.3407 6.50273 66.0074 6.19388 65.5966 6.19388H63.5834C63.1741 6.19388 62.8408 6.50273 62.8408 6.88158V24.1669C62.8408 24.5457 63.1741 24.8561 63.5834 24.8561H74.5273C74.9351 24.8561 75.2699 24.5457 75.2699 24.1669Z" fill="#8D9AA6"/>
<path d="M54.747 6.76443L51.6945 18.6653L48.6451 6.76443C48.5614 6.39319 48.181 6.19388 47.7625 6.19388H43.8685C43.4577 6.19388 43.1229 6.50274 43.1229 6.8831V24.1669C43.1229 24.5457 43.4577 24.8561 43.8685 24.8561H46.4493V10.3612L49.8411 24.3099C49.9264 24.6796 50.3144 24.8394 50.7237 24.8394H52.6699C53.0945 24.8394 53.4673 24.6796 53.551 24.3099L56.9443 10.3612V24.1669C56.9428 24.5457 57.2761 24.8561 57.6884 24.8561H59.5251C59.939 24.8561 60.2692 24.5457 60.2692 24.1669V6.19388H55.6296C55.2142 6.19388 54.8338 6.39319 54.7486 6.76443H54.747Z" fill="#8D9AA6"/>
<path d="M34.1191 6.66705C34.0583 6.52403 34.0111 6.43883 33.8848 6.34146C33.7418 6.23343 33.62 6.19844 33.442 6.19235H32.0694C31.4303 6.20148 31.0362 6.32624 30.5097 6.6777C30.0456 6.98808 29.8143 7.24672 29.5693 7.73511L23.0565 24.8531H26.4499C26.6036 24.8531 26.7527 24.8105 26.8972 24.6964C27.0205 24.5975 27.0722 24.5077 27.1255 24.3677L32.0938 10.5453L37.0544 24.8531H39.8422C40.0628 24.8531 40.285 24.7603 40.4326 24.5549C40.5817 24.3479 40.5741 24.1273 40.5071 23.9143L34.1207 6.66705H34.1191Z" fill="#8D9AA6"/>
<path d="M18.5219 19.0031C18.2434 19.1324 18.0882 19.3043 17.9588 19.5356C17.7169 20.0696 17.373 20.5139 16.9271 20.8729C16.2652 21.4115 15.4587 21.6839 14.5062 21.6839C13.1914 21.6839 12.1232 21.2046 11.3015 20.2476C10.4859 19.2921 10.0781 17.7433 10.0781 15.5995C10.0781 13.328 10.4813 11.7107 11.2878 10.7415C12.0958 9.78148 13.1427 9.29766 14.4331 9.29766C15.3842 9.29766 16.2013 9.60347 16.8906 10.2166C17.5754 10.8328 18.0669 11.7944 18.3667 13.1104L20.7313 12.3467C21.0068 12.2462 21.2076 12.1169 21.3735 11.8476C21.5759 11.5236 21.5804 11.2025 21.4861 10.8952C20.9444 9.47719 20.1744 8.38478 19.1762 7.61492C17.9452 6.66705 16.3733 6.19388 14.4696 6.19388C12.111 6.19388 10.18 7.00634 8.66139 8.63278C7.14731 10.2699 6.38647 12.4988 6.38647 15.3302C6.38647 18.3214 7.15036 20.6462 8.67356 22.2955C10.1998 23.9569 12.2023 24.7861 14.6872 24.7861C16.8587 24.7861 18.6193 24.1349 19.9751 22.8341C20.78 22.0658 21.3872 20.9612 21.7889 19.5249L19.3405 18.93C19.0301 18.8798 18.8095 18.8707 18.5203 19.0031H18.5219Z" fill="#8D9AA6"/>
<path d="M18.1582 24.3297C17.4612 24.6461 17.0945 24.707 16.215 24.8378L21.1224 24.8546L19.3481 23.61C18.8825 23.9569 18.6481 24.103 18.1566 24.3297H18.1582Z" fill="#8D9AA6"/>
<path d="M114.966 6.19388C113.917 6.19388 113.068 7.04437 113.068 8.09114C113.068 9.1379 113.917 9.9884 114.966 9.9884C116.014 9.9884 116.863 9.13943 116.863 8.09114C116.863 7.04285 116.013 6.19388 114.966 6.19388ZM114.966 9.79822C114.022 9.79822 113.259 9.03597 113.259 8.09114C113.259 7.14631 114.021 6.38406 114.966 6.38406C115.911 6.38406 116.673 7.14783 116.673 8.09114C116.673 9.03445 115.909 9.79822 114.966 9.79822Z" fill="#8D9AA6"/>
<path d="M114.553 8.30568H114.852L115.266 9.15009H115.746L115.27 8.23569C115.384 8.19309 115.476 8.12919 115.543 8.04398C115.62 7.93748 115.658 7.81577 115.658 7.68036C115.658 7.49322 115.597 7.34107 115.476 7.21935C115.346 7.09307 115.177 7.02765 114.969 7.02765H114.138V9.15161H114.553V8.3072V8.30568ZM114.553 7.40041H114.943C115.033 7.40041 115.106 7.42475 115.161 7.47648C115.217 7.52973 115.244 7.59668 115.244 7.67883C115.244 7.76099 115.217 7.82946 115.162 7.88119C115.109 7.93292 115.034 7.95726 114.943 7.95726H114.553V7.40193V7.40041Z" fill="#8D9AA6"/>
<path d="M38.0769 33.7156H37.7696C37.7391 33.7156 37.7102 33.7034 37.6859 33.6806C37.66 33.6578 37.6478 33.6288 37.6478 33.5923V28.4817C37.6478 28.4468 37.66 28.4133 37.6859 28.3859C37.7117 28.3585 37.7391 28.3433 37.7696 28.3433H38.3843C38.4345 28.3433 38.4756 28.3692 38.5076 28.4194L40.2042 32.9244L41.9161 28.4285C41.942 28.3722 41.977 28.3448 42.0242 28.3448H42.6222C42.6526 28.3448 42.6831 28.3585 42.7105 28.3874C42.7378 28.4163 42.7531 28.4483 42.7531 28.4833V33.5939C42.7531 33.6304 42.7409 33.6593 42.715 33.6821C42.6892 33.7049 42.6587 33.7171 42.6222 33.7171H42.3072C42.2707 33.7171 42.2418 33.7049 42.219 33.6821C42.1961 33.6593 42.184 33.6304 42.184 33.5939V29.1664L40.4721 33.6319C40.4462 33.6882 40.4051 33.7156 40.3488 33.7156H40.049C39.9927 33.7156 39.9517 33.6882 39.9258 33.6319L38.2063 29.1664V33.5939C38.2063 33.6304 38.1941 33.6593 38.1682 33.6821C38.1424 33.7049 38.1119 33.7171 38.0754 33.7171L38.0769 33.7156Z" fill="#8D9AA6"/>
<path d="M47.3319 32.2884L46.8556 33.6395C46.8358 33.6912 46.7962 33.7156 46.7399 33.7156H46.3565C46.3367 33.7156 46.3169 33.708 46.2986 33.6928C46.2804 33.6775 46.2712 33.6578 46.2712 33.6319L46.3169 33.4782L48.1353 28.4681C48.1657 28.3859 48.2144 28.3448 48.2814 28.3448H48.7196C48.7805 28.3448 48.8277 28.3829 48.8581 28.4604L50.7161 33.5254C50.7359 33.5665 50.7465 33.6015 50.7465 33.6334C50.7465 33.6441 50.7419 33.6608 50.7313 33.6836C50.7206 33.7064 50.6978 33.7186 50.6628 33.7186H50.2717C50.2048 33.7186 50.1637 33.6928 50.1485 33.6425L49.657 32.2915H47.3319V32.2884ZM49.4652 31.7514L48.4899 29.0203L47.5236 31.7514H49.4652Z" fill="#8D9AA6"/>
<path d="M54.8611 31.5444V33.5939C54.8611 33.6304 54.8474 33.6593 54.8185 33.6821C54.7896 33.7049 54.7576 33.7171 54.7226 33.7171H54.4001C54.3696 33.7171 54.3407 33.7049 54.3164 33.6821C54.2905 33.6593 54.2783 33.6304 54.2783 33.5939V28.4833C54.2783 28.4483 54.2905 28.4148 54.3164 28.3874C54.3422 28.36 54.3696 28.3448 54.4001 28.3448H56.2337C56.7404 28.3448 57.1436 28.4772 57.4419 28.7434C57.7417 29.0097 57.8908 29.3901 57.8908 29.8861V30.0017C57.8908 30.2162 57.8497 30.4262 57.7675 30.6316C57.6854 30.8354 57.5545 31.0089 57.3719 31.1489C57.1893 31.2888 56.9793 31.3908 56.7389 31.4516L57.8436 33.5239C57.8695 33.5756 57.8817 33.6106 57.8817 33.6319C57.8817 33.6425 57.8771 33.6593 57.8664 33.6821C57.8558 33.7049 57.8299 33.7171 57.7904 33.7171H57.3689C57.308 33.7171 57.2593 33.6836 57.2228 33.6167L56.1485 31.5444H54.8596H54.8611ZM54.8611 28.8971V30.9998H56.2124C56.3508 30.9998 56.5061 30.9724 56.681 30.9191C56.8545 30.8659 57.0036 30.7609 57.1254 30.6042C57.2486 30.4475 57.3095 30.2527 57.3095 30.0169V29.8937C57.3095 29.6685 57.2654 29.4813 57.1756 29.3338C57.0858 29.1862 56.958 29.0751 56.7921 29.0036C56.6263 28.9321 56.433 28.8956 56.2124 28.8956H54.8611V28.8971Z" fill="#8D9AA6"/>
<path d="M62.2199 33.5939C62.2199 33.6304 62.2062 33.6593 62.1773 33.6821C62.1484 33.7049 62.1164 33.7171 62.0814 33.7171H61.7588C61.7284 33.7171 61.6995 33.7049 61.6751 33.6821C61.6493 33.6593 61.6371 33.6304 61.6371 33.5939V28.4833C61.6371 28.4483 61.6493 28.4148 61.6751 28.3874C61.701 28.36 61.7284 28.3448 61.7588 28.3448H62.0814C62.1179 28.3448 62.1499 28.3585 62.1773 28.3874C62.2047 28.4148 62.2199 28.4483 62.2199 28.4833V31.2462L64.7367 28.4833C64.8296 28.392 64.898 28.3448 64.9437 28.3448H65.3652C65.3759 28.3448 65.3926 28.3494 65.4154 28.36C65.4382 28.3707 65.4504 28.3965 65.4504 28.4361C65.4504 28.4726 65.42 28.5259 65.3576 28.5974L63.5316 30.5768L65.3895 33.501C65.4306 33.5726 65.4504 33.6167 65.4504 33.6319C65.4504 33.6425 65.4458 33.6593 65.4352 33.6821C65.4245 33.7049 65.4017 33.7171 65.3667 33.7171H64.9224C64.8554 33.7171 64.8052 33.6836 64.7687 33.6167L63.1268 31.0074L62.2214 31.9978V33.5939H62.2199Z" fill="#8D9AA6"/>
<path d="M69.565 32.2884L69.0887 33.6395C69.0689 33.6912 69.0294 33.7156 68.9731 33.7156H68.5896C68.5698 33.7156 68.55 33.708 68.5318 33.6928C68.5135 33.6775 68.5044 33.6578 68.5044 33.6319L68.55 33.4782L70.3685 28.4681C70.3989 28.3859 70.4476 28.3448 70.5145 28.3448H70.9528C71.0136 28.3448 71.0608 28.3829 71.0913 28.4604L72.9492 33.5254C72.969 33.5665 72.9797 33.6015 72.9797 33.6334C72.9797 33.6441 72.9751 33.6608 72.9644 33.6836C72.9538 33.7064 72.931 33.7186 72.896 33.7186H72.5049C72.4379 33.7186 72.3969 33.6928 72.3816 33.6425L71.8901 32.2915H69.565V32.2884ZM71.6984 31.7514L70.723 29.0203L69.7567 31.7514H71.6984Z" fill="#8D9AA6"/>
<path d="M77.0775 33.5939C77.0775 33.6304 77.0654 33.6593 77.0395 33.6821C77.0136 33.7049 76.9832 33.7171 76.9482 33.7171H76.6332C76.6028 33.7171 76.5739 33.7049 76.5495 33.6821C76.5236 33.6593 76.5115 33.6304 76.5115 33.5939V28.4833C76.5115 28.4483 76.5236 28.4148 76.5495 28.3874C76.5754 28.36 76.6028 28.3448 76.6332 28.3448H77.0167C77.073 28.3448 77.1247 28.3813 77.1704 28.4528L79.8029 32.6201V28.4848C79.8029 28.4498 79.815 28.4163 79.8379 28.3889C79.8607 28.3616 79.8896 28.3463 79.9261 28.3463H80.2411C80.2776 28.3463 80.3081 28.36 80.3339 28.3889C80.3598 28.4163 80.372 28.4498 80.372 28.4848V33.5954C80.372 33.6319 80.3598 33.6608 80.3339 33.6836C80.3081 33.7064 80.2776 33.7186 80.2411 33.7186H79.9809C79.8987 33.7186 79.8303 33.6699 79.774 33.5726L77.0806 29.3216V33.5954L77.0775 33.5939Z" fill="#8D9AA6"/>
<path d="M84.8138 33.7156H84.4912C84.4608 33.7156 84.4319 33.7034 84.4075 33.6806C84.3817 33.6578 84.3695 33.6288 84.3695 33.5923V28.4817C84.3695 28.4468 84.3817 28.4133 84.4075 28.3859C84.4334 28.3585 84.4608 28.3433 84.4912 28.3433H84.8138C84.8504 28.3433 84.8823 28.357 84.9097 28.3859C84.9371 28.4133 84.9523 28.4468 84.9523 28.4817V33.5923C84.9523 33.6288 84.9386 33.6578 84.9097 33.6806C84.8808 33.7034 84.8488 33.7156 84.8138 33.7156Z" fill="#8D9AA6"/>
<path d="M92.127 33.7156H88.7504C88.7139 33.7156 88.6835 33.7034 88.6576 33.6806C88.6317 33.6578 88.6196 33.6288 88.6196 33.5923V33.3778C88.6196 33.3063 88.65 33.2196 88.7109 33.1176L91.5351 28.8895H88.7489C88.7124 28.8895 88.682 28.8773 88.6561 28.8545C88.6302 28.8317 88.618 28.8028 88.618 28.7663V28.4817C88.618 28.4468 88.6302 28.4133 88.6561 28.3859C88.682 28.3585 88.7124 28.3433 88.7489 28.3433H92.1255C92.162 28.3433 92.194 28.357 92.2214 28.3859C92.2488 28.4133 92.264 28.4468 92.264 28.4817V28.6887C92.264 28.7647 92.2259 28.8606 92.1483 28.9732L89.3545 33.1785H92.1255C92.162 33.1785 92.194 33.1907 92.2214 33.2165C92.2488 33.2424 92.264 33.2728 92.264 33.3093V33.5939C92.264 33.6304 92.2503 33.6593 92.2214 33.6821C92.1925 33.7049 92.1605 33.7171 92.1255 33.7171L92.127 33.7156Z" fill="#8D9AA6"/>
<path d="M96.4486 32.2884L95.9723 33.6395C95.9525 33.6912 95.9129 33.7156 95.8566 33.7156H95.4732C95.4534 33.7156 95.4336 33.708 95.4153 33.6928C95.3971 33.6775 95.3879 33.6578 95.3879 33.6319L95.4336 33.4782L97.252 28.4681C97.2824 28.3859 97.3311 28.3448 97.3981 28.3448H97.8363C97.8972 28.3448 97.9444 28.3829 97.9748 28.4604L99.8328 33.5254C99.8526 33.5665 99.8632 33.6015 99.8632 33.6334C99.8632 33.6441 99.8586 33.6608 99.848 33.6836C99.8373 33.7064 99.8145 33.7186 99.7795 33.7186H99.3884C99.3215 33.7186 99.2804 33.6928 99.2652 33.6425L98.7737 32.2915H96.4486V32.2884ZM98.5819 31.7514L97.6066 29.0203L96.6403 31.7514H98.5819Z" fill="#8D9AA6"/>
<path d="M109.655 33.7156H107.966C107.936 33.7156 107.907 33.7034 107.883 33.6806C107.857 33.6578 107.844 33.6288 107.844 33.5923V28.4817C107.844 28.4468 107.857 28.4133 107.883 28.3859C107.908 28.3585 107.936 28.3433 107.966 28.3433H109.646C109.917 28.3433 110.174 28.392 110.418 28.4894C110.661 28.5867 110.873 28.7267 111.055 28.9108C111.236 29.0949 111.378 29.317 111.477 29.5787C111.577 29.8389 111.626 30.1234 111.626 30.4307V31.6281C111.626 31.9355 111.576 32.2185 111.477 32.4801C111.376 32.7403 111.238 32.964 111.058 33.1481C110.879 33.3322 110.669 33.4737 110.425 33.5695C110.182 33.6654 109.925 33.7156 109.654 33.7156H109.655ZM109.648 28.8971H108.427V33.1709H109.655C109.794 33.1709 109.94 33.1481 110.094 33.1024C110.247 33.0568 110.402 32.967 110.558 32.8346C110.714 32.7023 110.833 32.5258 110.915 32.3082C110.997 32.0907 111.038 31.864 111.038 31.6296V30.4475C111.038 30.274 111.014 30.096 110.965 29.915C110.917 29.7339 110.835 29.5665 110.72 29.4159C110.605 29.2653 110.457 29.1405 110.275 29.0432C110.094 28.9458 109.885 28.8971 109.649 28.8971H109.648Z" fill="#8D9AA6"/>
<path d="M118.758 28.4832V28.7678C118.758 28.8043 118.744 28.8347 118.715 28.8606C118.688 28.8864 118.654 28.8986 118.619 28.8986H116.025V30.732H118.105C118.142 30.732 118.172 30.7441 118.198 30.77C118.224 30.7959 118.236 30.8263 118.236 30.8628V31.1473C118.236 31.1838 118.224 31.2143 118.198 31.2401C118.172 31.266 118.142 31.2782 118.105 31.2782H116.025V33.1739H118.619C118.654 33.1739 118.688 33.1876 118.715 33.2165C118.743 33.2454 118.758 33.2743 118.758 33.3048V33.5969C118.758 33.6334 118.744 33.6623 118.715 33.6851C118.686 33.7079 118.654 33.7201 118.619 33.7201H115.565C115.535 33.7201 115.506 33.7079 115.482 33.6851C115.456 33.6623 115.444 33.6334 115.444 33.5969V28.4863C115.444 28.4513 115.456 28.4178 115.482 28.3904C115.508 28.3631 115.535 28.3478 115.565 28.3478H118.619C118.654 28.3478 118.688 28.3615 118.715 28.3904C118.743 28.4193 118.758 28.4513 118.758 28.4863V28.4832Z" fill="#8D9AA6"/>
<path d="M125.481 31.5216H124.169C124.132 31.5216 124.102 31.5094 124.078 31.4866C124.052 31.4638 124.04 31.4349 124.04 31.3984V31.1215C124.04 31.0865 124.052 31.0545 124.078 31.0287C124.104 31.0028 124.134 30.9906 124.169 30.9906H125.919C125.955 30.9906 125.986 31.0028 126.012 31.0287C126.038 31.0545 126.05 31.085 126.05 31.1215V33.5923C126.05 33.6288 126.038 33.6577 126.012 33.6806C125.986 33.7034 125.955 33.7156 125.919 33.7156H125.642C125.605 33.7156 125.577 33.7034 125.554 33.6806C125.531 33.6577 125.519 33.6288 125.519 33.5923V33.0552C125.458 33.1633 125.363 33.2743 125.239 33.3884C125.114 33.5041 124.948 33.5999 124.744 33.676C124.539 33.7521 124.327 33.7916 124.107 33.7916C123.81 33.7916 123.537 33.7369 123.289 33.6273C123.041 33.5178 122.833 33.3671 122.664 33.1739C122.495 32.9807 122.366 32.7601 122.276 32.506C122.186 32.2534 122.142 31.9857 122.142 31.7042V30.3684C122.142 30.061 122.192 29.7765 122.291 29.5133C122.392 29.2501 122.53 29.0264 122.71 28.8423C122.889 28.6582 123.099 28.5167 123.343 28.4163C123.586 28.3159 123.845 28.2672 124.122 28.2672C124.399 28.2672 124.632 28.3098 124.855 28.3935C125.077 28.4787 125.269 28.5958 125.43 28.7465C125.592 28.8971 125.723 29.0721 125.826 29.2683C125.928 29.4646 126 29.6746 126.041 29.8937L126.048 30.0169C126.048 30.0732 126.022 30.1006 125.972 30.1006H125.558C125.507 30.1006 125.475 30.0595 125.458 29.9773C125.443 29.845 125.389 29.6867 125.301 29.5057C125.211 29.3246 125.064 29.1649 124.86 29.0264C124.654 28.888 124.409 28.8195 124.123 28.8195C123.933 28.8195 123.755 28.856 123.586 28.9275C123.417 28.999 123.268 29.101 123.14 29.2349C123.012 29.3672 122.912 29.5331 122.841 29.7293C122.769 29.9256 122.733 30.1417 122.733 30.3775V31.7042C122.733 31.8776 122.757 32.0557 122.806 32.2367C122.854 32.4178 122.936 32.5836 123.051 32.7312C123.166 32.8803 123.314 33.002 123.496 33.0994C123.677 33.1967 123.889 33.2454 124.129 33.2454C124.406 33.2454 124.642 33.1831 124.84 33.0568C125.036 32.932 125.193 32.7647 125.309 32.5577C125.424 32.3508 125.481 32.1378 125.481 31.9172V31.5186V31.5216Z" fill="#8D9AA6"/>
<path d="M133.301 28.4832V28.7678C133.301 28.8043 133.287 28.8347 133.258 28.8606C133.231 28.8864 133.197 28.8986 133.162 28.8986H130.568V30.732H132.648C132.684 30.732 132.715 30.7441 132.741 30.77C132.766 30.7959 132.779 30.8263 132.779 30.8628V31.1473C132.779 31.1838 132.766 31.2143 132.741 31.2401C132.715 31.266 132.684 31.2782 132.648 31.2782H130.568V33.1739H133.162C133.197 33.1739 133.231 33.1876 133.258 33.2165C133.285 33.2454 133.301 33.2743 133.301 33.3048V33.5969C133.301 33.6334 133.287 33.6623 133.258 33.6851C133.229 33.7079 133.197 33.7201 133.162 33.7201H130.108C130.078 33.7201 130.049 33.7079 130.024 33.6851C129.999 33.6623 129.986 33.6334 129.986 33.5969V28.4863C129.986 28.4513 129.999 28.4178 130.024 28.3904C130.05 28.3631 130.078 28.3478 130.108 28.3478H133.162C133.197 28.3478 133.231 28.3615 133.258 28.3904C133.285 28.4193 133.301 28.4513 133.301 28.4863V28.4832Z" fill="#8D9AA6"/>
<path d="M137.567 31.5444V33.5939C137.567 33.6304 137.554 33.6593 137.525 33.6821C137.496 33.7049 137.464 33.7171 137.429 33.7171H137.106C137.076 33.7171 137.047 33.7049 137.023 33.6821C136.997 33.6593 136.985 33.6304 136.985 33.5939V28.4833C136.985 28.4483 136.997 28.4148 137.023 28.3874C137.049 28.36 137.076 28.3448 137.106 28.3448H138.94C139.447 28.3448 139.85 28.4772 140.148 28.7434C140.448 29.0097 140.597 29.3901 140.597 29.8861V30.0017C140.597 30.2162 140.556 30.4262 140.474 30.6316C140.392 30.8354 140.261 31.0089 140.078 31.1489C139.896 31.2888 139.686 31.3908 139.445 31.4516L140.55 33.5239C140.576 33.5756 140.588 33.6106 140.588 33.6319C140.588 33.6425 140.583 33.6593 140.573 33.6821C140.562 33.7049 140.536 33.7171 140.497 33.7171H140.075C140.014 33.7171 139.966 33.6836 139.929 33.6167L138.855 31.5444H137.566H137.567ZM137.567 28.8971V30.9998H138.919C139.057 30.9998 139.212 30.9724 139.387 30.9191C139.561 30.8659 139.71 30.7609 139.832 30.6042C139.955 30.4475 140.016 30.2527 140.016 30.0169V29.8937C140.016 29.6685 139.972 29.4813 139.882 29.3338C139.792 29.1862 139.664 29.0751 139.498 29.0036C139.333 28.9321 139.139 28.8956 138.919 28.8956H137.567V28.8971Z" fill="#8D9AA6"/>
<path d="M125.637 27.5247V27.7149C125.637 27.7377 125.618 27.759 125.577 27.7758C125.535 27.7925 125.49 27.8016 125.438 27.8016H122.693C122.649 27.8016 122.608 27.794 122.571 27.7758C122.535 27.759 122.516 27.7393 122.516 27.7149V27.5247C122.516 27.5019 122.535 27.4806 122.571 27.4639C122.608 27.4471 122.649 27.438 122.693 27.438H125.438C125.49 27.438 125.535 27.4456 125.577 27.4639C125.618 27.4806 125.637 27.5004 125.637 27.5247Z" fill="#8D9AA6"/>
<path d="M153.271 10.5772C151.371 10.5772 150.42 11.8948 150.42 14.53V17.792C150.42 19.0883 150.643 20.0681 151.089 20.7299C151.535 21.3918 152.256 21.7234 153.25 21.7234C155.15 21.7234 156.102 20.4135 156.102 17.792V14.53C156.102 11.8948 155.158 10.5772 153.271 10.5772Z" fill="#B5CBB7"/>
<path d="M141.151 16.0423C140.373 16.0423 139.725 16.2949 139.206 16.7985C138.687 17.3021 138.429 17.9654 138.429 18.7855V18.8722C138.429 19.8079 138.68 20.5291 139.185 21.0327C139.689 21.5363 140.344 21.7889 141.151 21.7889C141.957 21.7889 142.613 21.5378 143.117 21.0327C143.621 20.5291 143.873 19.8094 143.873 18.8722V18.7855C143.873 17.9502 143.618 17.2838 143.106 16.7878C142.595 16.2903 141.944 16.0423 141.151 16.0423Z" fill="#B5CBB7"/>
<path d="M163.036 9.73431C162.646 9.73431 162.316 9.87429 162.042 10.1558C161.768 10.4372 161.631 10.7856 161.631 11.204C161.631 11.6224 161.768 11.9922 162.042 12.2736C162.316 12.5551 162.648 12.6951 163.036 12.6951C163.424 12.6951 163.756 12.5551 164.03 12.2736C164.303 11.9922 164.44 11.6361 164.44 11.204C164.44 10.772 164.303 10.4372 164.03 10.1558C163.756 9.87429 163.425 9.73431 163.036 9.73431Z" fill="#B5CBB7"/>
<path d="M120.678 6.19388V25.4404H167.038V6.19388H120.678ZM133.655 20.9673C133.482 21.4283 133.215 21.8786 132.856 22.3168C132.496 22.7565 131.981 23.1156 131.312 23.397C130.642 23.6785 129.86 23.8185 128.968 23.8185C128.133 23.8185 127.395 23.6892 126.754 23.429C126.114 23.1703 125.616 22.8356 125.263 22.4248C124.91 22.014 124.644 21.5895 124.464 21.1498C124.285 20.7101 124.187 20.275 124.172 19.8429C124.158 19.6999 124.201 19.5766 124.301 19.4762C124.402 19.3758 124.525 19.3256 124.668 19.3256H125.835C126.094 19.3256 126.267 19.4914 126.354 19.8231C126.484 20.5139 126.794 21.0114 127.284 21.3142C127.774 21.6169 128.335 21.7676 128.968 21.7676C129.833 21.7676 130.492 21.5439 130.945 21.0981C131.399 20.6523 131.625 20.0681 131.625 19.3484C131.625 17.7783 130.798 16.9932 129.14 16.9932H128.233C128.089 16.9932 127.97 16.943 127.877 16.8426C127.783 16.7422 127.737 16.6189 127.737 16.4759V15.4611C127.737 15.3166 127.785 15.1979 127.877 15.1051C127.97 15.0123 128.09 14.9651 128.233 14.9651H129.14C129.802 14.9651 130.358 14.7704 130.804 14.3824C131.249 13.9929 131.473 13.4604 131.473 12.7833C131.473 11.9922 131.231 11.4186 130.749 11.0656C130.266 10.7126 129.671 10.5361 128.967 10.5361C128.332 10.5361 127.775 10.6944 127.293 11.0108C126.811 11.3273 126.526 11.8172 126.439 12.479C126.382 12.8107 126.208 12.9766 125.921 12.9766H124.753C124.609 12.9766 124.487 12.9263 124.387 12.8259C124.286 12.7255 124.242 12.6099 124.257 12.4806C124.286 12.0196 124.394 11.5738 124.581 11.1417C124.769 10.7096 125.043 10.2851 125.402 9.86668C125.762 9.4498 126.258 9.11508 126.893 8.86252C127.526 8.61148 128.261 8.4852 129.096 8.4852C130.638 8.4852 131.793 8.89599 132.564 9.71606C133.334 10.5376 133.721 11.4946 133.721 12.5886C133.721 14.072 133.115 15.1735 131.905 15.8932C133.244 16.5991 133.914 17.83 133.914 19.5873C133.914 20.0483 133.827 20.5093 133.655 20.9703V20.9673ZM146.077 18.8722C146.077 20.2978 145.616 21.4785 144.693 22.4142C143.771 23.3499 142.591 23.8185 141.151 23.8185C139.712 23.8185 138.461 23.362 137.575 22.4461C136.689 21.5317 136.247 20.3252 136.247 18.8281V14.3565C136.247 12.514 136.668 11.0732 137.511 10.0356C138.354 8.99793 139.588 8.48063 141.216 8.48063C142.6 8.48063 143.707 8.86556 144.544 9.63694C145.38 10.4068 145.797 11.2679 145.797 12.2189C145.797 12.4775 145.667 12.6084 145.407 12.6084H144.068C143.866 12.6084 143.752 12.5368 143.723 12.3923C143.607 11.7868 143.322 11.3273 142.869 11.0093C142.416 10.6928 141.843 10.5346 141.151 10.5346C139.336 10.5346 138.429 11.7594 138.429 14.2074V15.2009C138.659 14.8982 139.037 14.6258 139.562 14.3793C140.087 14.1344 140.661 14.0127 141.28 14.0127C142.764 14.0127 143.934 14.46 144.791 15.3516C145.648 16.2446 146.077 17.3888 146.077 18.7855V18.8722ZM158.284 17.7266C158.284 19.6269 157.862 21.1179 157.019 22.1981C156.176 23.2784 154.919 23.8185 153.248 23.8185C151.578 23.8185 150.324 23.2784 149.49 22.1981C148.654 21.1179 148.237 19.6269 148.237 17.7266V14.5513C148.237 12.651 148.659 11.163 149.502 10.0903C150.345 9.01771 151.6 8.48063 153.273 8.48063C154.945 8.48063 156.179 9.01771 157.021 10.0903C157.864 11.163 158.285 12.6494 158.285 14.5513V17.7266H158.284ZM165.002 13.1591C164.454 13.6856 163.8 13.9472 163.036 13.9472C162.272 13.9472 161.599 13.684 161.059 13.1591C160.519 12.6342 160.25 11.9815 160.25 11.204C160.25 10.4266 160.519 9.77844 161.059 9.25962C161.599 8.7408 162.258 8.48216 163.036 8.48216C163.813 8.48216 164.454 8.74537 165.002 9.27027C165.55 9.7967 165.822 10.4403 165.822 11.204C165.822 11.9678 165.548 12.6342 165.002 13.1591Z" fill="#B5CBB7"/>
</svg>
