<svg width="24" height="24" viewBox="0 0 24 24" fill="none" xmlns="http://www.w3.org/2000/svg">
<path fill-rule="evenodd" clip-rule="evenodd" d="M2.02333 20C1.64114 21.3333 1.99999 24 11.9267 24C21.8534 24 22.2177 21.3333 21.8265 20C20.2609 16.4396 16.872 14.0024 11.8223 14.0014C7.03542 14.0004 3.63801 16.4247 2.03687 19.9699L2.02333 20ZM11.9267 16C8.39357 15.9993 5.77812 17.5875 4.32076 20C3.88051 20.6667 4.79999 22 12 22C19.2 22 20.1394 20.6667 19.7091 20C18.269 17.5884 15.6432 16.0008 11.9267 16Z" fill="#6C7072"/>
<path fill-rule="evenodd" clip-rule="evenodd" d="M12 12C15.3137 12 18 9.31371 18 6C18 2.68629 15.3137 0 12 0C8.68629 0 6 2.68629 6 6C6 9.31371 8.68629 12 12 12ZM12 10C14.2091 10 16 8.20914 16 6C16 3.79086 14.2091 2 12 2C9.79086 2 8 3.79086 8 6C8 8.20914 9.79086 10 12 10Z" fill="#6C7072"/>
</svg>
